<svg viewBox="0 0 480 480" xmlns="http://www.w3.org/2000/svg"><path d="M372 87.54c0 101.629.015 95.29-.032 96.356-.255 5.786-8.968 5.496-8.968-.296v-38.37c0-39.697-32.301-72-72-72H189c-39.692 0-72 32.296-72 72v38.37c0 5.791-8.714 6.081-8.968.296-.047-1.066-.032 5.466-.032-98.896 0-17.45 12.84-31.96 29.57-34.58C151.93 19.63 182.53 0 216.85 0h67.61C332.807 0 372 39.193 372 87.54zm-81 1.69H189c-30.88 0-56 25.13-56 56 0 .235-.006 66.346.01 66.58.91 58.23 48.56 105.31 106.99 105.31 58.72 0 106.54-47.54 107-106.16v-65.73c0-30.88-25.12-56-56-56zm34 257.67v29.691c0 3.437 2.193 6.499 5.456 7.577C347.595 389.829 360 405.989 360 425v36.726c0 4.261-3.215 7.982-7.468 8.257A8.001 8.001 0 01344 462v-36.425c0-14.692-11.497-27.127-26.183-27.563C302.558 397.559 290 409.841 290 425v36.726c0 4.261-3.215 7.982-7.468 8.257A8.001 8.001 0 01274 462v-37c0-19.011 12.405-35.171 29.544-40.832 3.264-1.078 5.456-4.14 5.456-7.577v-34.453c0-1.911-2.223-2.978-3.72-1.837-65.432 49.879-61.542 47.722-65.275 47.699-3.895-.023.574 2.5-65.293-47.704-1.443-1.1-3.712-.143-3.712 1.836v45.42c0 3.088 1.769 5.921 4.571 7.219 10.723 4.968 18.04 16.082 17.389 28.797-.771 15.053-12.91 27.38-27.95 28.365C147.562 453.077 133 439.207 133 422c0-12.029 7.118-22.42 17.362-27.197a8.004 8.004 0 004.638-7.25V346.77c0-2.38-2.069-4.263-4.431-3.979C109.664 347.724 78 382.499 78 424.74V472a8 8 0 008 8h308a8 8 0 008-8v-47.628c0-42.089-31.781-76.076-72.526-81.445-2.376-.313-4.474 1.576-4.474 3.973zm-80.15 19.345l42.679-32.531c4.321-3.294.674-10.215-4.439-8.376-30.055 10.809-59.778 9.896-86.037.049-5.305-1.989-8.898 5.038-4.59 8.322l42.688 32.537a8.002 8.002 0 009.699-.001zM149 422c0 7.72 6.28 14 14 14s14-6.28 14-14-6.28-14-14-14-14 6.28-14 14z"/></svg>