<svg viewBox="0 0 511.951 511.951" xmlns="http://www.w3.org/2000/svg"><path d="M76.984 207.388c15.337 30.103 25.005 63.223 26.982 95.83v102.733h30V301.855c-2.168-36.841-12.993-74.209-30.264-108.091zM414.84 168.599c-11.426-42.144-30.264-88.579-53.042-130.767L335.401 52.07c21.709 40.239 39.639 84.404 50.493 124.395 15.498 56.95 18.589 99.948 19.072 149.486v80h30v-80c-.507-50.761-3.754-97.195-20.126-157.352zM254.967 380.951v15.211c0 7.412 6.724 13.447 15 13.447s15-6.035 15-13.447v-15.211h89.865l-.093-68.529-62.364 3.51c-5.548 18.413-22.597 30.835-41.997 30.835h-.615c-18.384-.249-34.614-11.045-41.689-26.089l-65.105 3.578v56.695zM269.527 111.338c2.408 19.184-8.578 38.062-26.821 45.586-17.241 7.119-35.903 3.911-48.442-7.09l-62.756 31.599c5.579 11.583 10.699 23.78 15.062 36.561l90.57-24.272 3.955 14.399c1.787 6.519 10.005 10.547 18.354 9.053 7.736-1.417 12.779-8.939 10.635-16.802l-3.955-14.502 84.089-22.786c-8.511-27.123-18.82-53.06-30.782-77.281zM111.174 145.498c2.007 2.961 3.695 6.616 5.632 9.756l87.726-44.37 6.914 13.096c2.886 5.405 11.118 8.789 19.819 5.215 7.068-2.919 10.854-11.294 7.061-18.589l-7.031-13.418 73.975-37.844c-7.96-13.993-16.229-27.548-25.078-40.056C272.941 9.019 261.662 2.164 249.269.45c-12.51-1.758-24.712 1.685-34.482 9.609L201.94 20.474c-17.157-10.294-38.732-7.181-52.544 6.079-13.228 12.656-17.944 32.227-13.228 48.501L120.3 85.85c-17.945 14.545-21.959 40.737-9.126 59.648zM358.586 191.897l-58.121 15.754c-1.558 19.017-15.905 35.42-35.581 39.023-18.018 3.354-35.918-3.735-45.938-16.948l-64.444 17.192c3.807 15.564 6.594 31.348 7.947 47.349l91.17-5.083.674 15.176c.249 5.771 6.841 12.29 15.879 12.407 9.078-.189 14.405-6.696 14.048-14.443l-.674-14.81 89.564-5.039c-2.281-30.996-7.114-61.386-14.524-90.578zM227.735 482.951c6.343 16.582 22.881 29 42.231 29s35.889-12.418 42.231-29h62.769v-72h-62.769c-6.343 16.582-22.881 28.658-42.231 28.658s-35.889-12.076-42.231-28.658h-64.769l.216 72z"/></svg>