<svg viewBox="0 -71 800 800" xmlns="http://www.w3.org/2000/svg"><path d="M495.098 446.36l-61.313 24.077a14.282 14.282 0 01-13.27-1.492 14.294 14.294 0 01-6.226-11.804V371.43c0-7.895 6.39-14.29 14.281-14.29h85.72c7.882 0 14.28-6.398 14.28-14.28 0-7.895-6.398-14.29-14.28-14.29h-85.72c-7.89 0-14.28-6.398-14.28-14.28v-57.145c0-7.887 6.39-14.286 14.28-14.286h128.57c7.895 0 14.29-6.394 14.29-14.289 0-7.89-6.395-14.28-14.29-14.28H428.57c-7.89 0-14.28-6.4-14.28-14.29v-57.14c0-7.895 6.39-14.29 14.28-14.29h85.72c7.882 0 14.28-6.398 14.28-14.28 0-7.892-6.398-14.29-14.28-14.29h-85.72c-7.89 0-14.28-6.398-14.28-14.29 0-7.882-6.4-14.28-14.29-14.28s-14.29 6.398-14.29 14.28c0 7.892-6.39 14.29-14.28 14.29h-85.72c-7.882 0-14.28 6.398-14.28 14.29 0 7.882 6.398 14.28 14.28 14.28h85.72c7.89 0 14.28 6.395 14.28 14.29V200c0 7.89-6.39 14.29-14.28 14.29H242.855c-7.89 0-14.285 6.39-14.285 14.28 0 7.895 6.395 14.29 14.285 14.29H371.43c7.89 0 14.28 6.398 14.28 14.285v57.144c0 7.883-6.39 14.281-14.28 14.281h-85.72c-7.882 0-14.28 6.395-14.28 14.29 0 7.882 6.398 14.28 14.28 14.28h85.72c7.89 0 14.28 6.395 14.28 14.29v85.71c0 4.727-2.331 9.145-6.233 11.805a14.267 14.267 0 01-13.262 1.493l-60.14-23.567a34.688 34.688 0 00-15.919-4.016 33.094 33.094 0 00-25.89 12.375 32.6 32.6 0 00-6.86 24.493 32.61 32.61 0 0012.852 21.96l93.594 72.005c21.398 16.199 50.953 16.199 72.351 0l93.367-71.813a32.605 32.605 0 0013.008-21.988 32.566 32.566 0 00-6.867-24.606c-9.691-12.254-26.672-15.98-40.613-8.922zm-167.672 44.78a14.612 14.612 0 01-3.004 4.715A14.977 14.977 0 01314.289 500a19.07 19.07 0 01-2.863-.29 9.02 9.02 0 01-2.567-.85 11.345 11.345 0 01-2.586-1.29 23.755 23.755 0 01-2.128-1.715 14.744 14.744 0 01-3.004-4.714 14.338 14.338 0 01-1.141-5.43c.023-.961.121-1.914.29-2.856a9.15 9.15 0 01.85-2.574 10.67 10.67 0 011.286-2.566l1.719-2.145 2.128-1.71c.801-.54 1.665-.973 2.586-1.29a8.907 8.907 0 012.567-.855 14.418 14.418 0 0112.996 3.855l1.719 2.145c.539.8.968 1.66 1.285 2.566a8.56 8.56 0 01.847 2.574c.172.942.278 1.895.297 2.856a14.268 14.268 0 01-1.144 5.43zm171.433 0a14.744 14.744 0 01-3.004 4.715A14.998 14.998 0 01485.711 500a18.865 18.865 0 01-2.856-.29 9.15 9.15 0 01-2.574-.85c-.91-.32-1.781-.755-2.586-1.29a25.485 25.485 0 01-2.125-1.715 14.733 14.733 0 01-3-4.714 14.264 14.264 0 01-1.14-5.43c.023-.961.113-1.914.285-2.856a9.036 9.036 0 01.855-2.574c.313-.906.746-1.77 1.29-2.566l1.71-2.145 2.125-1.71c.805-.54 1.676-.973 2.586-1.29.817-.418 1.68-.699 2.574-.855a14.432 14.432 0 0113 3.855l1.715 2.145c.535.8.97 1.66 1.29 2.566.413.809.695 1.676.843 2.574.176.942.274 1.895.297 2.856a14.338 14.338 0 01-1.14 5.43zm0 0"/><path d="M785.71 0H14.29C6.397 0 0 6.398 0 14.29v628.565c0 7.887 6.398 14.286 14.29 14.286h771.42c7.892 0 14.29-6.399 14.29-14.286V14.29C800 6.4 793.602 0 785.71 0zm-756 37.426a16.502 16.502 0 013.005-4.711c5.73-5.285 14.555-5.285 20.289 0A16.734 16.734 0 0156 37.425a13.473 13.473 0 010 10.86 16.718 16.718 0 01-2.996 4.719c-5.637 5.52-14.652 5.52-20.29 0a16.487 16.487 0 01-3.003-4.719 13.536 13.536 0 010-10.86zm84.58 591.144H50c-11.836 0-21.43-9.593-21.43-21.43v-64.285c0-7.89 6.395-14.285 14.285-14.285 7.887 0 14.286 6.395 14.286 14.285V600h57.148c7.883 0 14.281 6.398 14.281 14.29 0 7.882-6.398 14.28-14.28 14.28zm42.85-571.425H100c-7.89 0-14.29-6.399-14.29-14.286 0-7.894 6.4-14.289 14.29-14.289h57.14c7.895 0 14.29 6.395 14.29 14.29 0 7.886-6.395 14.285-14.29 14.285zm389.688 467.44l-93.27 71.74c-31.648 24.01-75.41 24.01-107.054 0l-93.492-71.91a61.12 61.12 0 01-23.989-41.231 61.1 61.1 0 0112.95-45.91c18.207-22.704 49.808-29.586 75.808-16.516l39.36 15.472v-50.52h-71.43c-23.672 0-42.856-19.183-42.856-42.85 0-23.672 19.184-42.86 42.856-42.86h71.43v-28.57H242.855c-23.667 0-42.855-19.188-42.855-42.86 0-23.668 19.188-42.86 42.855-42.86h114.286v-28.565h-71.43c-23.672 0-42.856-19.184-42.856-42.856 0-23.668 19.184-42.86 42.856-42.86h73.879c6.039-17.136 22.242-28.593 40.41-28.593s34.371 11.457 40.41 28.594h73.88a42.852 42.852 0 0137.112 21.43 42.844 42.844 0 010 42.85 42.856 42.856 0 01-37.113 21.435h-71.434v28.566h114.286c23.672 0 42.859 19.191 42.859 42.86 0 23.671-19.187 42.859-42.86 42.859H442.856V300h71.434c23.672 0 42.852 19.188 42.852 42.86 0 23.667-19.18 42.85-42.852 42.85h-71.434v50.5l40.645-15.92c28.418-13.645 62.555-3.509 78.922 23.44 16.363 26.95 9.617 61.915-15.594 80.84zM728.57 614.29H585.71c-7.882 0-14.28-6.398-14.28-14.289s6.398-14.29 14.28-14.29h142.86c7.89 0 14.285 6.4 14.285 14.29s-6.394 14.29-14.285 14.29zm0-57.148h-85.715c-7.89 0-14.285-6.399-14.285-14.286 0-7.89 6.395-14.285 14.285-14.285h85.715c7.89 0 14.285 6.395 14.285 14.285 0 7.887-6.394 14.286-14.285 14.286zm42.86-442.852c0 7.883-6.395 14.281-14.29 14.281-7.886 0-14.285-6.398-14.285-14.28V57.144h-57.144c-7.883 0-14.281-6.399-14.281-14.286 0-7.894 6.398-14.289 14.28-14.289H750c11.836 0 21.43 9.594 21.43 21.43zm0 0"/></svg>