<?xml version="1.0" encoding="utf-8"?><svg xmlns="http://www.w3.org/2000/svg" xmlns:xlink="http://www.w3.org/1999/xlink"><symbol viewBox="0 0 512 512" id="arrow" xmlns="http://www.w3.org/2000/svg"><path d="M506.134 241.843l-.018-.019-104.504-104c-7.829-7.791-20.492-7.762-28.285.068-7.792 7.829-7.762 20.492.067 28.284L443.558 236H20c-11.046 0-20 8.954-20 20s8.954 20 20 20h423.557l-70.162 69.824c-7.829 7.792-7.859 20.455-.067 28.284 7.793 7.831 20.457 7.858 28.285.068l104.504-104 .018-.019c7.833-7.818 7.808-20.522-.001-28.314z"/></symbol><symbol viewBox="0 -46 417.813 417" id="check" xmlns="http://www.w3.org/2000/svg"><path d="M159.988 318.582c-3.988 4.012-9.43 6.25-15.082 6.25s-11.094-2.238-15.082-6.25L9.375 198.113c-12.5-12.5-12.5-32.77 0-45.246l15.082-15.086c12.504-12.5 32.75-12.5 45.25 0l75.2 75.203L348.104 9.781c12.504-12.5 32.77-12.5 45.25 0l15.082 15.086c12.5 12.5 12.5 32.766 0 45.246zm0 0"/></symbol><symbol viewBox="0 0 512 512" id="fast" xmlns="http://www.w3.org/2000/svg"><path d="M27.689 181h58.8v30h-58.8zm0 120h58.8v30h-58.8zM0 241h86.49v30H0zM314.245 58.245C205.028 58.245 116.49 146.783 116.49 256s88.538 197.755 197.755 197.755S512 365.217 512 256 423.462 58.245 314.245 58.245zm62.364 278.971l-83.115-56.641v-121.36h30v105.5l70.01 47.709-16.895 24.792z"/></symbol><symbol viewBox="0 0 480 480" id="man" xmlns="http://www.w3.org/2000/svg"><path d="M372 87.54c0 101.629.015 95.29-.032 96.356-.255 5.786-8.968 5.496-8.968-.296v-38.37c0-39.697-32.301-72-72-72H189c-39.692 0-72 32.296-72 72v38.37c0 5.791-8.714 6.081-8.968.296-.047-1.066-.032 5.466-.032-98.896 0-17.45 12.84-31.96 29.57-34.58C151.93 19.63 182.53 0 216.85 0h67.61C332.807 0 372 39.193 372 87.54zm-81 1.69H189c-30.88 0-56 25.13-56 56 0 .235-.006 66.346.01 66.58.91 58.23 48.56 105.31 106.99 105.31 58.72 0 106.54-47.54 107-106.16v-65.73c0-30.88-25.12-56-56-56zm34 257.67v29.691c0 3.437 2.193 6.499 5.456 7.577C347.595 389.829 360 405.989 360 425v36.726c0 4.261-3.215 7.982-7.468 8.257A8.001 8.001 0 01344 462v-36.425c0-14.692-11.497-27.127-26.183-27.563C302.558 397.559 290 409.841 290 425v36.726c0 4.261-3.215 7.982-7.468 8.257A8.001 8.001 0 01274 462v-37c0-19.011 12.405-35.171 29.544-40.832 3.264-1.078 5.456-4.14 5.456-7.577v-34.453c0-1.911-2.223-2.978-3.72-1.837-65.432 49.879-61.542 47.722-65.275 47.699-3.895-.023.574 2.5-65.293-47.704-1.443-1.1-3.712-.143-3.712 1.836v45.42c0 3.088 1.769 5.921 4.571 7.219 10.723 4.968 18.04 16.082 17.389 28.797-.771 15.053-12.91 27.38-27.95 28.365C147.562 453.077 133 439.207 133 422c0-12.029 7.118-22.42 17.362-27.197a8.004 8.004 0 004.638-7.25V346.77c0-2.38-2.069-4.263-4.431-3.979C109.664 347.724 78 382.499 78 424.74V472a8 8 0 008 8h308a8 8 0 008-8v-47.628c0-42.089-31.781-76.076-72.526-81.445-2.376-.313-4.474 1.576-4.474 3.973zm-80.15 19.345l42.679-32.531c4.321-3.294.674-10.215-4.439-8.376-30.055 10.809-59.778 9.896-86.037.049-5.305-1.989-8.898 5.038-4.59 8.322l42.688 32.537a8.002 8.002 0 009.699-.001zM149 422c0 7.72 6.28 14 14 14s14-6.28 14-14-6.28-14-14-14-14 6.28-14 14z"/></symbol><symbol viewBox="0 0 511.951 511.951" id="spine" xmlns="http://www.w3.org/2000/svg"><path d="M76.984 207.388c15.337 30.103 25.005 63.223 26.982 95.83v102.733h30V301.855c-2.168-36.841-12.993-74.209-30.264-108.091zm337.856-38.789c-11.426-42.144-30.264-88.579-53.042-130.767L335.401 52.07c21.709 40.239 39.639 84.404 50.493 124.395 15.498 56.95 18.589 99.948 19.072 149.486v80h30v-80c-.507-50.761-3.754-97.195-20.126-157.352zM254.967 380.951v15.211c0 7.412 6.724 13.447 15 13.447s15-6.035 15-13.447v-15.211h89.865l-.093-68.529-62.364 3.51c-5.548 18.413-22.597 30.835-41.997 30.835h-.615c-18.384-.249-34.614-11.045-41.689-26.089l-65.105 3.578v56.695zm14.56-269.613c2.408 19.184-8.578 38.062-26.821 45.586-17.241 7.119-35.903 3.911-48.442-7.09l-62.756 31.599c5.579 11.583 10.699 23.78 15.062 36.561l90.57-24.272 3.955 14.399c1.787 6.519 10.005 10.547 18.354 9.053 7.736-1.417 12.779-8.939 10.635-16.802l-3.955-14.502 84.089-22.786c-8.511-27.123-18.82-53.06-30.782-77.281zm-158.353 34.16c2.007 2.961 3.695 6.616 5.632 9.756l87.726-44.37 6.914 13.096c2.886 5.405 11.118 8.789 19.819 5.215 7.068-2.919 10.854-11.294 7.061-18.589l-7.031-13.418 73.975-37.844c-7.96-13.993-16.229-27.548-25.078-40.056C272.941 9.019 261.662 2.164 249.269.45c-12.51-1.758-24.712 1.685-34.482 9.609L201.94 20.474c-17.157-10.294-38.732-7.181-52.544 6.079-13.228 12.656-17.944 32.227-13.228 48.501L120.3 85.85c-17.945 14.545-21.959 40.737-9.126 59.648zm247.412 46.399l-58.121 15.754c-1.558 19.017-15.905 35.42-35.581 39.023-18.018 3.354-35.918-3.735-45.938-16.948l-64.444 17.192c3.807 15.564 6.594 31.348 7.947 47.349l91.17-5.083.674 15.176c.249 5.771 6.841 12.29 15.879 12.407 9.078-.189 14.405-6.696 14.048-14.443l-.674-14.81 89.564-5.039c-2.281-30.996-7.114-61.386-14.524-90.578zM227.735 482.951c6.343 16.582 22.881 29 42.231 29s35.889-12.418 42.231-29h62.769v-72h-62.769c-6.343 16.582-22.881 28.658-42.231 28.658s-35.889-12.076-42.231-28.658h-64.769l.216 72z"/></symbol><symbol viewBox="0 -71 800 800" id="x-ray" xmlns="http://www.w3.org/2000/svg"><path d="M495.098 446.36l-61.313 24.077a14.282 14.282 0 01-13.27-1.492 14.294 14.294 0 01-6.226-11.804V371.43c0-7.895 6.39-14.29 14.281-14.29h85.72c7.882 0 14.28-6.398 14.28-14.28 0-7.895-6.398-14.29-14.28-14.29h-85.72c-7.89 0-14.28-6.398-14.28-14.28v-57.145c0-7.887 6.39-14.286 14.28-14.286h128.57c7.895 0 14.29-6.394 14.29-14.289 0-7.89-6.395-14.28-14.29-14.28H428.57c-7.89 0-14.28-6.4-14.28-14.29v-57.14c0-7.895 6.39-14.29 14.28-14.29h85.72c7.882 0 14.28-6.398 14.28-14.28 0-7.892-6.398-14.29-14.28-14.29h-85.72c-7.89 0-14.28-6.398-14.28-14.29 0-7.882-6.4-14.28-14.29-14.28s-14.29 6.398-14.29 14.28c0 7.892-6.39 14.29-14.28 14.29h-85.72c-7.882 0-14.28 6.398-14.28 14.29 0 7.882 6.398 14.28 14.28 14.28h85.72c7.89 0 14.28 6.395 14.28 14.29V200c0 7.89-6.39 14.29-14.28 14.29H242.855c-7.89 0-14.285 6.39-14.285 14.28 0 7.895 6.395 14.29 14.285 14.29H371.43c7.89 0 14.28 6.398 14.28 14.285v57.144c0 7.883-6.39 14.281-14.28 14.281h-85.72c-7.882 0-14.28 6.395-14.28 14.29 0 7.882 6.398 14.28 14.28 14.28h85.72c7.89 0 14.28 6.395 14.28 14.29v85.71a14.28 14.28 0 01-6.233 11.805 14.267 14.267 0 01-13.262 1.493l-60.14-23.567a34.688 34.688 0 00-15.919-4.016 33.094 33.094 0 00-25.89 12.375 32.6 32.6 0 00-6.86 24.493 32.61 32.61 0 0012.852 21.96l93.594 72.005c21.398 16.199 50.953 16.199 72.351 0l93.367-71.813a32.605 32.605 0 0013.008-21.988 32.566 32.566 0 00-6.867-24.606c-9.691-12.254-26.672-15.98-40.613-8.922zm-167.672 44.78a14.612 14.612 0 01-3.004 4.715A14.977 14.977 0 01314.289 500a19.07 19.07 0 01-2.863-.29 9.02 9.02 0 01-2.567-.85 11.345 11.345 0 01-2.586-1.29 23.755 23.755 0 01-2.128-1.715 14.744 14.744 0 01-3.004-4.714 14.338 14.338 0 01-1.141-5.43c.023-.961.121-1.914.29-2.856a9.15 9.15 0 01.85-2.574 10.67 10.67 0 011.286-2.566l1.719-2.145 2.128-1.71c.801-.54 1.665-.973 2.586-1.29a8.907 8.907 0 012.567-.855 14.418 14.418 0 0112.996 3.855l1.719 2.145c.539.8.968 1.66 1.285 2.566a8.56 8.56 0 01.847 2.574c.172.942.278 1.895.297 2.856a14.268 14.268 0 01-1.144 5.43zm171.433 0a14.744 14.744 0 01-3.004 4.715A14.998 14.998 0 01485.711 500a18.865 18.865 0 01-2.856-.29 9.15 9.15 0 01-2.574-.85 11.68 11.68 0 01-2.586-1.29 25.485 25.485 0 01-2.125-1.715 14.733 14.733 0 01-3-4.714 14.264 14.264 0 01-1.14-5.43c.023-.961.113-1.914.285-2.856a9.036 9.036 0 01.855-2.574c.313-.906.746-1.77 1.29-2.566l1.71-2.145 2.125-1.71c.805-.54 1.676-.973 2.586-1.29a9.036 9.036 0 012.574-.855 14.432 14.432 0 0113 3.855l1.715 2.145c.535.8.97 1.66 1.29 2.566a8.8 8.8 0 01.843 2.574c.176.942.274 1.895.297 2.856a14.338 14.338 0 01-1.14 5.43zm0 0"/><path d="M785.71 0H14.29C6.397 0 0 6.398 0 14.29v628.565c0 7.887 6.398 14.286 14.29 14.286h771.42c7.892 0 14.29-6.399 14.29-14.286V14.29C800 6.4 793.602 0 785.71 0zm-756 37.426a16.502 16.502 0 013.005-4.711c5.73-5.285 14.555-5.285 20.289 0A16.734 16.734 0 0156 37.425a13.473 13.473 0 010 10.86 16.718 16.718 0 01-2.996 4.719c-5.637 5.52-14.652 5.52-20.29 0a16.487 16.487 0 01-3.003-4.719 13.536 13.536 0 010-10.86zm84.58 591.144H50c-11.836 0-21.43-9.593-21.43-21.43v-64.285c0-7.89 6.395-14.285 14.285-14.285 7.887 0 14.286 6.395 14.286 14.285V600h57.148c7.883 0 14.281 6.398 14.281 14.29 0 7.882-6.398 14.28-14.28 14.28zm42.85-571.425H100c-7.89 0-14.29-6.399-14.29-14.286 0-7.894 6.4-14.289 14.29-14.289h57.14c7.895 0 14.29 6.395 14.29 14.29 0 7.886-6.395 14.285-14.29 14.285zm389.688 467.44l-93.27 71.74c-31.648 24.01-75.41 24.01-107.054 0l-93.492-71.91a61.12 61.12 0 01-23.989-41.231 61.1 61.1 0 0112.95-45.91c18.207-22.704 49.808-29.586 75.808-16.516l39.36 15.472v-50.52h-71.43c-23.672 0-42.856-19.183-42.856-42.85 0-23.672 19.184-42.86 42.856-42.86h71.43v-28.57H242.855c-23.667 0-42.855-19.188-42.855-42.86 0-23.668 19.188-42.86 42.855-42.86h114.286v-28.565h-71.43c-23.672 0-42.856-19.184-42.856-42.856 0-23.668 19.184-42.86 42.856-42.86h73.879c6.039-17.136 22.242-28.593 40.41-28.593s34.371 11.457 40.41 28.594h73.88a42.852 42.852 0 0137.112 21.43 42.844 42.844 0 010 42.85 42.856 42.856 0 01-37.113 21.435h-71.434v28.566h114.286c23.672 0 42.859 19.191 42.859 42.86 0 23.671-19.187 42.859-42.86 42.859H442.856V300h71.434c23.672 0 42.852 19.188 42.852 42.86 0 23.667-19.18 42.85-42.852 42.85h-71.434v50.5l40.645-15.92c28.418-13.645 62.555-3.509 78.922 23.44 16.363 26.95 9.617 61.915-15.594 80.84zM728.57 614.29H585.71c-7.882 0-14.28-6.398-14.28-14.289s6.398-14.29 14.28-14.29h142.86c7.89 0 14.285 6.4 14.285 14.29s-6.394 14.29-14.285 14.29zm0-57.148h-85.715c-7.89 0-14.285-6.399-14.285-14.286 0-7.89 6.395-14.285 14.285-14.285h85.715c7.89 0 14.285 6.395 14.285 14.285 0 7.887-6.394 14.286-14.285 14.286zm42.86-442.852c0 7.883-6.395 14.281-14.29 14.281-7.886 0-14.285-6.398-14.285-14.28V57.144h-57.144c-7.883 0-14.281-6.399-14.281-14.286 0-7.894 6.398-14.289 14.28-14.289H750c11.836 0 21.43 9.594 21.43 21.43zm0 0"/></symbol></svg>